<svg width="22" height="22" viewBox="0 0 22 22" fill="none" xmlns="http://www.w3.org/2000/svg">
<path d="M9.26337 12.7496C9.3469 13.6197 9.48853 14.2663 9.68343 14.6929C9.88075 15.1181 10.231 15.3302 10.7367 15.3302C10.8312 15.3302 10.9158 15.3154 10.9997 15.2982C11.0856 15.3154 11.1698 15.3302 11.265 15.3302C11.7693 15.3302 12.1206 15.1181 12.3169 14.6929C12.5128 14.2663 12.6521 13.6197 12.7373 12.7496L13.1862 6.03207C13.2698 4.72273 13.3124 3.78326 13.3124 3.21298C13.3124 2.43679 13.1099 1.8311 12.7036 1.39626C12.2959 0.961413 11.7604 0.744507 11.0969 0.744507C11.0615 0.744507 11.0351 0.752413 11.0003 0.753788C10.9673 0.752413 10.9402 0.744507 10.9058 0.744507C10.241 0.744507 9.70646 0.961413 9.29946 1.39626C8.89281 1.83179 8.68896 2.43782 8.68896 3.21332C8.68896 3.7836 8.73056 4.72307 8.81546 6.03241L9.26337 12.7496ZM11.0172 17.7856C10.373 17.7856 9.82575 17.9887 9.37131 18.395C8.91721 18.8017 8.68965 19.2953 8.68965 19.8749C8.68965 20.529 8.91996 21.044 9.37715 21.418C9.8364 21.792 10.372 21.979 10.9842 21.979C11.6074 21.979 12.1509 21.7947 12.6156 21.4252C13.0797 21.0567 13.3117 20.539 13.3117 19.8756C13.3117 19.296 13.0897 18.8024 12.6455 18.3957C12.2014 17.9887 11.6586 17.7856 11.0162 17.7856" fill="#9BE1A0"/>
</svg>
